<svg id="visual" viewBox="0 0 1920 800" width="1920" height="800" xmlns="http://www.w3.org/2000/svg" xmlns:xlink="http://www.w3.org/1999/xlink" version="1.1"><g><g transform="translate(258 610)"><path d="M86.4 1.1C86.4 44.2 43.2 88.3 -10.1 88.3C-63.3 88.3 -126.7 44.2 -126.7 1.1C-126.7 -42 -63.3 -83.9 -10.1 -83.9C43.2 -83.9 86.4 -42 86.4 1.1Z" stroke="#c8a73c" fill="none" stroke-width="20"></path></g><g transform="translate(1606 349)"><path d="M99.7 -1.9C99.7 48.2 49.8 96.4 5.2 96.4C-39.4 96.4 -78.9 48.2 -78.9 -1.9C-78.9 -52.1 -39.4 -104.1 5.2 -104.1C49.8 -104.1 99.7 -52.1 99.7 -1.9Z" stroke="#c8a73c" fill="none" stroke-width="20"></path></g><g transform="translate(710 494)"><path d="M72.2 -3.4C72.2 32.9 36.1 65.8 0.7 65.8C-34.7 65.8 -69.3 32.9 -69.3 -3.4C-69.3 -39.7 -34.7 -79.3 0.7 -79.3C36.1 -79.3 72.2 -39.7 72.2 -3.4Z" stroke="#c8a73c" fill="none" stroke-width="20"></path></g></g></svg>