<svg width="47" height="47" viewBox="0 0 47 47" fill="none" xmlns="http://www.w3.org/2000/svg">
<path fill-rule="evenodd" clip-rule="evenodd" d="M27.5964 6.91323L23.5 0L19.0458 7.51713L10.9946 3.14682L11.3098 11.5232H3.01604L7.42558 18.9649L0 23.4015L7.28908 27.3582L3.01604 34.5695H12.1769L12.5054 43.3011L19.4036 39.1795L23.5 46.0927L27.9542 38.5756L36.0054 42.9459L35.6902 34.5695H43.984L39.5744 27.1278L47 22.6912L39.7109 18.7346L43.984 11.5232H34.8231L34.4946 2.79167L27.5964 6.91323ZM30.328 11.5232L27.5964 6.91323L22.9964 9.66162L19.0458 7.51713L16.672 11.5232H11.3098L11.4982 16.5316L7.42558 18.9649L9.84403 23.0464L7.28908 27.3582L12.0018 29.9163L12.1769 34.5695H16.672L19.4036 39.1795L24.0036 36.4311L27.9542 38.5756L30.328 34.5695H35.6902L35.5018 29.5612L39.5744 27.1278L37.156 23.0464L39.7109 18.7346L34.9982 16.1764L34.8231 11.5232H30.328ZM32.1782 14.6457L30.328 11.5232H26.4259L22.9964 9.66162L19.8808 11.5232H16.672L14.9134 14.4911L11.4982 16.5316L11.6299 20.0324L9.84403 23.0464L11.8721 26.469L12.0018 29.9163L14.8218 31.4471L16.672 34.5695H20.5741L24.0036 36.4311L27.1193 34.5695H30.328L32.0866 31.6017L35.5018 29.5612L35.3701 26.0603L37.156 23.0464L35.1279 19.6237L34.9982 16.1764L32.1782 14.6457ZM32.1782 14.6457L35.1279 19.6237L35.3701 26.0603L32.0866 31.6017L27.1193 34.5695H20.5741L14.8218 31.4471L11.8721 26.469L11.6299 20.0324L14.9134 14.4911L19.8808 11.5232H26.4259L32.1782 14.6457Z" fill="#D9D9D9"/>
<path d="M18.8931 28V18.13H21.4691V21.938H25.5431V18.13H28.1051V28H25.5431V24.052H21.4691V28H18.8931Z" fill="white"/>
</svg>
