<svg width="512" height="556" viewBox="0 0 512 556" fill="none" xmlns="http://www.w3.org/2000/svg">
<path d="M393.701 225.279L393.701 225.279C382.839 212.393 370.048 200.999 355.604 191.587L356.031 190.933L355.604 191.587C341.167 182.177 325.081 174.759 307.676 169.83C284.469 163.258 260.933 161.686 238.361 164.506C204.493 168.74 172.765 182.8 146.999 204.534L146.999 204.534C134.112 215.396 122.719 228.187 113.314 242.632L113.314 242.632C103.906 257.062 96.4854 273.156 91.5566 290.561C84.985 313.768 83.4131 337.303 86.2319 359.876C90.4643 393.75 104.519 425.469 126.26 451.238L126.261 451.239C137.123 464.124 149.913 475.518 164.357 484.93M393.701 225.279L164.357 484.93M393.701 225.279C415.431 251.038 429.497 282.767 433.729 316.641C436.549 339.213 434.98 362.742 428.409 385.949C423.48 403.354 416.059 419.447 406.651 433.877L407.268 434.279L406.651 433.877C397.239 448.321 385.845 461.111 372.957 471.98C347.192 493.708 315.471 507.769 281.604 512.004C259.025 514.822 235.495 513.251 212.289 506.68C194.876 501.749 178.79 494.33 164.357 484.93M393.701 225.279L163.93 485.585L164.357 484.93M171.375 448.811L171.841 448.23L171.375 448.811C185.727 460.317 202.532 469.189 221.391 474.538C235.538 478.544 249.738 480.238 263.653 479.885C277.568 479.53 291.203 477.114 304.162 472.844C330.075 464.311 353.287 448.37 370.539 426.856C382.042 412.511 390.917 395.706 396.265 376.848L396.265 376.847C400.264 362.698 401.966 348.501 401.612 334.585C401.258 320.669 398.841 307.035 394.564 294.074C386.033 268.153 370.09 244.948 348.575 227.702C334.238 216.194 317.433 207.321 298.573 201.98C284.426 197.974 270.221 196.27 256.305 196.624C242.39 196.978 228.76 199.403 215.804 203.667L215.804 203.667C189.88 212.205 166.675 228.148 149.424 249.655L149.424 249.655C137.922 263.999 129.042 280.802 123.7 299.664C119.695 313.81 117.99 328.015 118.351 341.932C118.706 355.848 121.124 369.475 125.394 382.434C133.925 408.356 149.868 431.56 171.375 448.811Z" fill="white" stroke="white" stroke-width="1.5625"/>
<path d="M148.712 131.318L179.19 117.637L196.48 156.128L166.007 169.824L148.712 131.318Z" fill="white" stroke="white" stroke-width="1.5625"/>
<path d="M409.54 216.462L444.452 192.753L463.225 220.38L428.309 244.102L409.54 216.462Z" fill="white" stroke="white" stroke-width="1.5625"/>
<path d="M292.436 132.028L292.557 131.601L292.252 131.279C289.415 128.277 286.965 124.941 284.97 121.37L284.97 121.37C278.788 110.312 276.823 96.8365 280.547 83.6872C284.272 70.5315 293.01 60.0871 304.07 53.9197L304.071 53.9191C315.121 47.7344 328.602 45.7715 341.753 49.4954C354.902 53.219 365.347 61.957 371.521 73.0196L371.522 73.0201C377.7 84.0692 379.665 97.5444 375.939 110.7C372.216 123.849 363.477 134.293 352.422 140.47C348.842 142.464 345.014 144.023 341.019 145.088L340.589 145.203L340.468 145.63L336.349 160.177L288.317 146.576L292.436 132.028ZM338.739 60.1411L338.738 60.1409C328.487 57.245 318.087 58.7658 309.462 63.5797L309.461 63.5801C300.849 68.3971 294.101 76.4542 291.198 86.7035C288.296 96.9521 289.82 107.345 294.626 115.969L294.625 115.969L294.631 115.978C294.849 116.358 295.075 116.731 295.296 117.095L295.298 117.099L296.229 118.635L296.718 116.907L300.066 105.084L348.098 118.686L344.75 130.509L344.261 132.236L345.859 131.417L345.862 131.415C346.241 131.22 346.63 131.021 347.015 130.811L347.023 130.807C355.645 125.985 362.391 117.934 365.293 107.685C368.195 97.436 366.674 87.0369 361.858 78.4174L361.858 78.417C357.035 69.796 348.985 63.0505 338.739 60.1411Z" fill="white" stroke="white" stroke-width="1.5625"/>
<path d="M218.599 329.28L218.386 330.032L219.138 330.245L230.085 333.345C230.434 333.443 230.853 333.464 231.242 333.247C231.63 333.03 231.832 332.662 231.93 332.314L235.806 318.628C235.856 318.453 235.933 318.385 235.982 318.358C236.03 318.331 236.129 318.3 236.305 318.35L252.269 322.871C252.438 322.918 252.505 322.995 252.532 323.044C252.56 323.093 252.59 323.192 252.541 323.367L248.665 337.053C248.595 337.301 248.506 337.699 248.659 338.094C248.838 338.557 249.239 338.769 249.586 338.867L254.034 340.126C254.203 340.174 254.269 340.25 254.296 340.299C254.324 340.348 254.354 340.447 254.305 340.622L250.301 354.761C250.253 354.93 250.176 355 250.124 355.029C250.072 355.058 249.975 355.087 249.81 355.041L245.48 353.814C245.136 353.717 244.714 353.688 244.321 353.903C243.926 354.12 243.726 354.493 243.63 354.836L241.079 363.841C241.03 364.016 240.951 364.088 240.899 364.117C240.848 364.146 240.752 364.175 240.586 364.128L224.621 359.607C224.45 359.559 224.382 359.481 224.354 359.431C224.325 359.379 224.295 359.277 224.345 359.102L226.895 350.097C226.993 349.749 227.014 349.328 226.793 348.939C226.573 348.554 226.204 348.356 225.862 348.259L195.758 339.734C195.587 339.686 195.519 339.608 195.491 339.558C195.462 339.506 195.433 339.406 195.481 339.237L199.615 324.638C199.741 324.192 199.8 324.005 200.025 323.755L200.037 323.742L200.048 323.729L235.193 280.967L235.201 280.957L235.209 280.947C235.32 280.801 235.422 280.737 235.531 280.706C235.653 280.672 235.865 280.658 236.227 280.76L254.135 285.831C254.195 285.848 254.242 285.866 254.279 285.883C254.268 285.896 254.256 285.91 254.242 285.925L254.229 285.939L254.217 285.954L218.814 328.762L218.71 328.889L218.665 329.047L218.599 329.28Z" fill="white" stroke="white" stroke-width="1.5625"/>
<path d="M281.096 355.356L281.096 355.356L281.097 355.367C281.194 357.096 281.642 358.817 282.689 360.281C283.743 361.755 285.358 362.905 287.671 363.559C289.332 364.03 290.966 364.06 292.46 363.579C293.954 363.098 295.256 362.121 296.273 360.666C297.357 359.225 298.195 357.12 299.036 354.148C299.94 350.955 300.3 348.834 300.135 347.04C300.066 345.153 299.471 343.624 298.414 342.443C297.362 341.268 295.906 340.498 294.217 340.019C290.608 338.997 287.91 340.151 286.119 342.12C285.893 342.368 285.705 342.505 285.541 342.57C285.397 342.628 285.229 342.649 284.988 342.581L270.395 338.449C270.22 338.399 270.152 338.321 270.125 338.273C270.098 338.224 270.067 338.125 270.117 337.951L282.482 294.284C282.532 294.11 282.611 294.039 282.662 294.01C282.713 293.981 282.811 293.951 282.982 293.999L328.139 306.786C328.305 306.833 328.374 306.91 328.404 306.964C328.433 307.017 328.463 307.12 328.415 307.291L324.541 320.97C324.494 321.137 324.417 321.207 324.363 321.237C324.31 321.267 324.21 321.296 324.043 321.248L294.625 312.918C294.282 312.821 293.86 312.793 293.468 313.012C293.075 313.232 292.877 313.606 292.78 313.949L289.101 326.942L288.888 327.693L289.64 327.906L289.866 327.97L290.166 328.055L290.441 327.911C292.996 326.575 297.098 325.71 302.966 327.371C307.713 328.716 311.499 330.873 314.135 333.826C316.761 336.768 318.288 340.549 318.444 345.232L318.444 345.234C318.566 348.619 318.233 352.382 316.346 359.049C315.043 363.65 313.293 367.255 311.444 369.962L311.444 369.962L311.438 369.972C305.653 378.728 295.518 381.158 283.756 377.827C269.575 373.811 262.889 363.781 264.536 353.324C264.615 353.093 264.819 352.89 265.164 352.856L280.585 354.649C280.815 354.683 280.905 354.764 280.955 354.829C281.019 354.916 281.085 355.078 281.096 355.356Z" fill="white" stroke="white" stroke-width="1.5625"/>
<path d="M239.317 234.275C240.052 237.194 238.286 240.156 235.365 240.899C232.447 241.635 229.483 239.869 228.741 236.948C228.005 234.028 229.771 231.066 232.692 230.323C235.611 229.588 238.573 231.353 239.317 234.275Z" fill="white" stroke="white" stroke-width="1.5625"/>
<path d="M189.99 266.247C187.825 268.346 184.376 268.296 182.276 266.139C180.178 263.983 180.226 260.533 182.384 258.433C184.551 256.327 187.999 256.378 190.09 258.532C192.191 260.698 192.145 264.149 189.99 266.247Z" fill="white" stroke="white" stroke-width="1.5625"/>
<path d="M337.535 430.054L337.534 430.055C319.851 444.973 298.076 454.622 274.824 457.525C259.325 459.462 243.161 458.377 227.244 453.87C203.345 447.11 183.083 433.498 168.182 415.813L168.182 415.813C153.265 398.122 143.62 376.357 140.712 353.096C138.804 337.838 139.818 321.945 144.15 306.264L171.627 314.045C169.184 322.953 168.153 331.875 168.372 340.629C168.597 349.631 170.17 358.445 172.925 366.829L172.926 366.83C178.451 383.596 188.764 398.615 202.672 409.763C211.947 417.206 222.812 422.945 235.022 426.402C244.179 428.996 253.358 430.092 262.359 429.867L262.359 429.867C271.353 429.639 280.174 428.069 288.558 425.313L288.559 425.313C305.317 419.785 320.337 409.472 331.492 395.565L331.492 395.565C338.927 386.288 344.666 375.424 348.123 363.215C350.717 354.058 351.82 344.881 351.588 335.877C351.36 326.883 349.797 318.066 347.034 309.679C341.515 292.914 331.2 277.902 317.286 266.745L317.286 266.745C308.2 259.462 297.598 253.809 285.694 250.331L293.475 222.855C317.046 229.686 337.03 243.202 351.776 260.701L351.776 260.701C366.702 278.387 376.344 300.159 379.254 323.413C381.19 338.914 380.108 355.07 375.598 370.995C368.838 394.893 355.22 415.152 337.535 430.054Z" fill="white" stroke="white" stroke-width="1.5625"/>
<mask id="path-10-inside-1_202_50" fill="white">
<path d="M58.8598 245.069C59.9326 243.568 59.586 241.482 58.0858 240.409C56.5855 239.336 54.4994 239.683 53.4266 241.183L24.2444 281.994L9.49778 271.449C7.99742 270.376 5.91142 270.723 4.83855 272.223C3.76568 273.724 4.11226 275.81 5.61261 276.882L23.0759 289.37C24.5762 290.443 26.6623 290.096 27.7351 288.596L58.8598 245.069Z"/>
</mask>
<path d="M58.8598 245.069C59.9326 243.568 59.586 241.482 58.0858 240.409C56.5855 239.336 54.4994 239.683 53.4266 241.183L24.2444 281.994L9.49778 271.449C7.99742 270.376 5.91142 270.723 4.83855 272.223C3.76568 273.724 4.11226 275.81 5.61261 276.882L23.0759 289.37C24.5762 290.443 26.6623 290.096 27.7351 288.596L58.8598 245.069Z" fill="black"/>
<path d="M58.8598 245.069L85.9742 264.457L85.975 264.456L58.8598 245.069ZM58.0858 240.409L77.4754 213.296L77.475 213.295L58.0858 240.409ZM53.4266 241.183L80.541 260.572L80.5415 260.571L53.4266 241.183ZM24.2444 281.994L4.85591 309.108L31.9703 328.497L51.3588 301.382L24.2444 281.994ZM9.49778 271.449L28.8862 244.335L28.8853 244.334L9.49778 271.449ZM4.83855 272.223L31.9524 291.613L31.9524 291.613L4.83855 272.223ZM5.61261 276.882L25.001 249.768L25.0004 249.767L5.61261 276.882ZM23.0759 289.37L42.4672 262.257L42.4643 262.255L23.0759 289.37ZM27.7351 288.596L0.620654 269.207L0.618626 269.21L27.7351 288.596ZM85.975 264.456C97.7547 247.981 93.9493 225.077 77.4754 213.296L38.6961 267.523C25.2227 257.888 22.1105 239.155 31.7446 225.681L85.975 264.456ZM77.475 213.295C60.9996 201.514 38.0924 205.319 26.3116 221.795L80.5415 260.571C70.9063 274.047 52.1714 277.159 38.6965 267.523L77.475 213.295ZM26.3122 221.795L-2.87007 262.605L51.3588 301.382L80.541 260.572L26.3122 221.795ZM43.6328 254.879L28.8862 244.335L-9.89066 298.564L4.85591 309.108L43.6328 254.879ZM28.8853 244.334C12.4106 232.554 -10.4943 236.36 -22.2753 252.834L31.9524 291.613C22.3172 305.086 3.58426 308.198 -9.88976 298.564L28.8853 244.334ZM-22.2753 252.834C-34.0571 269.309 -30.2514 292.217 -13.7751 303.998L25.0004 249.767C38.4759 259.403 41.5885 278.138 31.9524 291.613L-22.2753 252.834ZM-13.7758 303.997L3.68744 316.484L42.4643 262.255L25.001 249.768L-13.7758 303.997ZM3.68449 316.482C20.1609 328.266 43.0707 324.46 54.8515 307.981L0.618626 269.21C10.2539 255.732 28.9916 252.619 42.4672 262.257L3.68449 316.482ZM54.8495 307.984L85.9742 264.457L31.7454 225.68L0.620654 269.207L54.8495 307.984Z" fill="white" mask="url(#path-10-inside-1_202_50)"/>
<path d="M47.4981 285.309L47.1886 285.087L46.988 284.944L44.786 283.369L44.7857 283.369L42.2718 281.571L47.4981 285.309ZM47.4981 285.309L47.5023 285.312L47.4981 285.309Z" fill="black" stroke="white" stroke-width="33.3333"/>
<path d="M25.2276 374.809C25.9475 373.208 26.3077 372.407 26.809 372.161C27.2444 371.946 27.7557 371.946 28.1911 372.161C28.6924 372.407 29.0525 373.208 29.7725 374.809L35.5072 387.564C35.7203 388.038 35.8266 388.274 35.9915 388.456C36.137 388.616 36.3152 388.744 36.5139 388.832C36.7388 388.932 36.9988 388.959 37.5188 389.013L51.5269 390.479C53.2856 390.663 54.1648 390.755 54.5563 391.151C54.8963 391.496 55.0542 391.978 54.9833 392.455C54.9019 393.004 54.245 393.59 52.9314 394.764L42.4673 404.113C42.0792 404.46 41.8848 404.633 41.762 404.845C41.6531 405.032 41.585 405.239 41.5623 405.454C41.5365 405.697 41.5906 405.95 41.6992 406.457L44.6219 420.118C44.9889 421.833 45.1724 422.691 44.913 423.182C44.6875 423.61 44.2739 423.907 43.7947 423.988C43.2429 424.08 42.477 423.643 40.945 422.767L28.7431 415.789C28.2903 415.53 28.0639 415.401 27.8232 415.35C27.6101 415.305 27.3899 415.305 27.1769 415.35C26.9362 415.401 26.7098 415.53 26.257 415.789L14.0551 422.767C12.5232 423.643 11.7573 424.08 11.2055 423.988C10.7263 423.907 10.3125 423.61 10.0872 423.182C9.82788 422.691 10.0113 421.833 10.3783 420.118L13.3009 406.457C13.4094 405.95 13.4636 405.697 13.4379 405.454C13.4151 405.239 13.347 405.032 13.2382 404.845C13.1152 404.633 12.921 404.46 12.5327 404.113L2.06885 394.764C0.755172 393.59 0.098318 393.004 0.0166506 392.455C-0.0542565 391.978 0.103761 391.496 0.443803 391.151C0.835285 390.755 1.71462 390.663 3.47331 390.479L17.4815 389.013C18.0014 388.959 18.2613 388.932 18.4861 388.832C18.685 388.744 18.8631 388.616 19.0088 388.456C19.1735 388.274 19.2799 388.038 19.4928 387.564L25.2276 374.809Z" fill="white"/>
<path d="M102.53 154.124C103.791 152.945 104.421 152.356 104.968 152.323C105.442 152.294 105.904 152.488 106.215 152.847C106.573 153.261 106.593 154.124 106.632 155.85L106.942 169.593C106.954 170.103 106.959 170.358 107.039 170.585C107.109 170.786 107.221 170.97 107.367 171.125C107.532 171.3 107.756 171.424 108.205 171.67L120.287 178.317C121.804 179.152 122.563 179.569 122.765 180.077C122.94 180.518 122.899 181.016 122.653 181.421C122.37 181.888 121.554 182.17 119.92 182.736L106.911 187.241C106.428 187.409 106.187 187.492 105.995 187.637C105.826 187.766 105.685 187.928 105.583 188.114C105.467 188.324 105.419 188.574 105.323 189.076L102.75 202.573C102.427 204.267 102.266 205.115 101.844 205.462C101.478 205.764 100.991 205.877 100.528 205.768C99.9945 205.642 99.4702 204.954 98.4218 203.579L90.0715 192.619C89.7616 192.213 89.6066 192.01 89.4088 191.872C89.2336 191.751 89.0349 191.667 88.8256 191.627C88.5889 191.582 88.3353 191.613 87.8279 191.676L74.1547 193.371C72.4381 193.584 71.5799 193.69 71.1172 193.396C70.7154 193.142 70.4556 192.714 70.4153 192.241C70.3687 191.697 70.8613 190.989 71.8467 189.573L79.6951 178.295C79.9865 177.876 80.1321 177.667 80.2014 177.437C80.2627 177.234 80.2805 177.02 80.2536 176.809C80.2232 176.571 80.1141 176.34 79.896 175.878L74.0189 163.428C73.281 161.865 72.9121 161.083 73.0477 160.555C73.1656 160.095 73.4921 159.718 73.9303 159.535C74.4349 159.324 75.2635 159.574 76.9209 160.075L90.1218 164.064C90.6118 164.212 90.8567 164.286 91.0975 164.281C91.3104 164.277 91.5201 164.228 91.7128 164.138C91.9305 164.036 92.1169 163.862 92.4896 163.514L102.53 154.124Z" fill="white"/>
<path d="M480.4 353.704C481.444 352.727 481.966 352.239 482.419 352.211C482.812 352.187 483.194 352.348 483.452 352.646C483.749 352.989 483.765 353.703 483.797 355.133L484.054 366.516C484.064 366.939 484.068 367.15 484.134 367.338C484.193 367.504 484.285 367.657 484.406 367.785C484.543 367.93 484.728 368.033 485.1 368.237L495.108 373.743C496.365 374.434 496.993 374.779 497.16 375.2C497.306 375.566 497.271 375.978 497.068 376.314C496.833 376.7 496.157 376.934 494.804 377.403L484.028 381.135C483.629 381.273 483.428 381.342 483.27 381.462C483.129 381.569 483.013 381.703 482.928 381.857C482.832 382.031 482.793 382.239 482.713 382.654L480.582 393.834C480.314 395.237 480.181 395.939 479.832 396.227C479.528 396.477 479.125 396.57 478.741 396.48C478.299 396.376 477.865 395.807 476.997 394.667L470.08 385.589C469.823 385.252 469.695 385.084 469.531 384.97C469.386 384.87 469.221 384.801 469.048 384.767C468.852 384.73 468.642 384.756 468.222 384.808L456.896 386.212C455.474 386.388 454.763 386.476 454.38 386.233C454.047 386.022 453.832 385.668 453.799 385.276C453.76 384.825 454.168 384.239 454.984 383.066L461.485 373.724C461.727 373.378 461.847 373.204 461.905 373.014C461.955 372.846 461.97 372.668 461.948 372.494C461.923 372.296 461.832 372.105 461.652 371.722L456.784 361.41C456.172 360.115 455.867 359.468 455.979 359.03C456.077 358.65 456.347 358.337 456.71 358.185C457.128 358.011 457.815 358.218 459.187 358.633L470.122 361.936C470.528 362.059 470.731 362.12 470.93 362.117C471.106 362.113 471.28 362.073 471.44 361.998C471.62 361.914 471.774 361.769 472.083 361.481L480.4 353.704Z" fill="white"/>
<path d="M449.828 403.327C450.39 403.238 450.671 403.193 450.827 403.285C450.962 403.365 451.052 403.504 451.07 403.66C451.092 403.839 450.937 404.078 450.629 404.557L448.171 408.369C448.08 408.51 448.034 408.581 448.014 408.658C447.996 408.726 447.992 408.797 448.003 408.866C448.016 408.944 448.054 409.02 448.131 409.17L450.203 413.222C450.463 413.73 450.593 413.985 450.554 414.161C450.52 414.314 450.417 414.442 450.275 414.507C450.111 414.582 449.836 414.509 449.285 414.361L444.897 413.185C444.734 413.141 444.653 413.119 444.573 413.123C444.503 413.127 444.435 413.145 444.373 413.177C444.302 413.213 444.243 413.273 444.124 413.392L440.923 416.604C440.522 417.007 440.321 417.208 440.141 417.225C439.985 417.24 439.831 417.181 439.725 417.065C439.603 416.932 439.587 416.647 439.555 416.077L439.301 411.538C439.292 411.37 439.287 411.286 439.258 411.212C439.233 411.146 439.194 411.086 439.144 411.037C439.088 410.98 439.013 410.942 438.863 410.865L434.814 408.799C434.305 408.539 434.051 408.409 433.979 408.244C433.916 408.1 433.924 407.935 434.001 407.798C434.089 407.641 434.355 407.539 434.886 407.334L439.117 405.705C439.274 405.645 439.352 405.614 439.414 405.564C439.468 405.52 439.512 405.465 439.544 405.402C439.58 405.332 439.593 405.248 439.619 405.082L440.317 400.593C440.404 400.029 440.448 399.748 440.583 399.628C440.7 399.525 440.859 399.482 441.013 399.513C441.19 399.549 441.37 399.771 441.73 400.214L444.598 403.746C444.705 403.877 444.758 403.943 444.825 403.986C444.884 404.024 444.95 404.05 445.019 404.061C445.098 404.073 445.181 404.06 445.347 404.034L449.828 403.327Z" fill="white"/>
<path d="M467.628 326.486C468.453 326.356 468.866 326.291 469.094 326.426C469.292 326.543 469.424 326.746 469.452 326.975C469.483 327.238 469.257 327.589 468.804 328.291L465.196 333.885C465.063 334.093 464.996 334.197 464.966 334.309C464.94 334.409 464.935 334.513 464.951 334.615C464.969 334.73 465.026 334.84 465.139 335.061L468.178 341.006C468.56 341.753 468.75 342.126 468.693 342.384C468.644 342.609 468.492 342.797 468.284 342.893C468.044 343.003 467.639 342.895 466.831 342.678L460.392 340.952C460.153 340.888 460.034 340.856 459.918 340.862C459.815 340.868 459.714 340.895 459.623 340.941C459.519 340.994 459.432 341.082 459.258 341.256L454.562 345.969C453.972 346.561 453.677 346.856 453.414 346.881C453.185 346.903 452.959 346.816 452.803 346.646C452.623 346.451 452.6 346.033 452.553 345.197L452.181 338.536C452.167 338.289 452.16 338.165 452.118 338.057C452.081 337.96 452.024 337.873 451.951 337.8C451.869 337.718 451.758 337.661 451.538 337.549L445.596 334.516C444.85 334.135 444.477 333.945 444.371 333.701C444.279 333.49 444.291 333.248 444.403 333.048C444.533 332.817 444.922 332.667 445.702 332.367L451.91 329.976C452.141 329.887 452.256 329.843 452.346 329.77C452.426 329.705 452.491 329.624 452.538 329.532C452.59 329.428 452.609 329.306 452.647 329.062L453.671 322.475C453.8 321.648 453.864 321.234 454.062 321.059C454.234 320.907 454.467 320.844 454.693 320.89C454.952 320.942 455.217 321.268 455.745 321.919L459.954 327.102C460.111 327.294 460.189 327.39 460.287 327.454C460.373 327.51 460.47 327.547 460.572 327.564C460.687 327.582 460.809 327.563 461.053 327.524L467.628 326.486Z" fill="white"/>
</svg>
