<svg width="303" height="62" viewBox="0 0 303 62" fill="none" xmlns="http://www.w3.org/2000/svg">
<path d="M64.9402 48V12.75H74.1402V26.35H88.6902V12.75H97.8402V48H88.6902V33.9H74.1402V48H64.9402ZM112.197 48.55C110.297 48.55 108.614 48.2 107.147 47.5C105.714 46.8 104.58 45.85 103.747 44.65C102.947 43.4167 102.547 42.0167 102.547 40.45C102.547 38.6833 103.014 37.2833 103.947 36.25C104.88 35.1833 106.38 34.4333 108.447 34C110.514 33.5333 113.264 33.3 116.697 33.3H118.597V32.6C118.597 31.4 118.28 30.55 117.647 30.05C117.047 29.55 115.997 29.3 114.497 29.3C113.23 29.3 111.83 29.5 110.297 29.9C108.764 30.3 107.264 30.9167 105.797 31.75L103.547 25.9C104.38 25.3 105.447 24.7667 106.747 24.3C108.047 23.8333 109.414 23.4833 110.847 23.25C112.28 22.9833 113.63 22.85 114.897 22.85C118.997 22.85 122.03 23.7333 123.997 25.5C125.997 27.2667 126.997 30.05 126.997 33.85V48H118.697V44.5C118.264 45.7667 117.48 46.7667 116.347 47.5C115.214 48.2 113.83 48.55 112.197 48.55ZM114.197 42.75C115.43 42.75 116.464 42.35 117.297 41.55C118.164 40.75 118.597 39.7 118.597 38.4V37.5H116.697C114.73 37.5 113.28 37.7167 112.347 38.15C111.447 38.55 110.997 39.2 110.997 40.1C110.997 40.8667 111.264 41.5 111.797 42C112.364 42.5 113.164 42.75 114.197 42.75ZM148.265 48.55C146.632 48.55 145.132 48.2 143.765 47.5C142.398 46.7667 141.382 45.8167 140.715 44.65V48H132.065V12.75H140.965V26.35C141.665 25.2833 142.665 24.4333 143.965 23.8C145.298 23.1667 146.732 22.85 148.265 22.85C150.398 22.85 152.265 23.3667 153.865 24.4C155.498 25.4333 156.765 26.9167 157.665 28.85C158.565 30.75 159.015 33.0333 159.015 35.7C159.015 38.3333 158.548 40.6167 157.615 42.55C156.715 44.4833 155.448 45.9667 153.815 47C152.215 48.0333 150.365 48.55 148.265 48.55ZM145.465 42C146.798 42 147.898 41.5 148.765 40.5C149.632 39.5 150.065 37.9 150.065 35.7C150.065 33.4667 149.632 31.8667 148.765 30.9C147.898 29.9 146.798 29.4 145.465 29.4C144.098 29.4 142.982 29.9 142.115 30.9C141.248 31.8667 140.815 33.4667 140.815 35.7C140.815 37.9 141.248 39.5 142.115 40.5C142.982 41.5 144.098 42 145.465 42ZM162.821 19.15V11.1H172.171V19.15H162.821ZM163.071 48V23.4H171.971V48H163.071ZM190.033 48.55C186.3 48.55 183.533 47.6833 181.733 45.95C179.933 44.2167 179.033 41.6 179.033 38.1V29.95H174.433V23.4H179.033V16.25H187.933V23.4H194.933V29.95H187.933V37.8C187.933 40.2 189.15 41.4 191.583 41.4C191.983 41.4 192.417 41.3667 192.883 41.3C193.383 41.2 193.933 41.0667 194.533 40.9L195.733 47.3C194.967 47.7 194.067 48 193.033 48.2C192 48.4333 191 48.55 190.033 48.55ZM210.628 48.55C207.895 48.55 205.511 48.0333 203.478 47C201.445 45.9667 199.861 44.4833 198.728 42.55C197.595 40.6167 197.028 38.3333 197.028 35.7C197.028 33.0333 197.595 30.75 198.728 28.85C199.861 26.9167 201.445 25.4333 203.478 24.4C205.511 23.3667 207.895 22.85 210.628 22.85C213.361 22.85 215.745 23.3667 217.778 24.4C219.811 25.4333 221.378 26.9167 222.478 28.85C223.611 30.75 224.178 33.0333 224.178 35.7C224.178 38.3333 223.611 40.6167 222.478 42.55C221.378 44.4833 219.811 45.9667 217.778 47C215.745 48.0333 213.361 48.55 210.628 48.55ZM210.628 42C211.961 42 213.061 41.5 213.928 40.5C214.795 39.5 215.228 37.9 215.228 35.7C215.228 33.4667 214.795 31.8667 213.928 30.9C213.061 29.9 211.961 29.4 210.628 29.4C209.261 29.4 208.145 29.9 207.278 30.9C206.411 31.8667 205.978 33.4667 205.978 35.7C205.978 37.9 206.411 39.5 207.278 40.5C208.145 41.5 209.261 42 210.628 42ZM228.256 48V23.4H236.906V26.75C237.773 25.4833 238.89 24.5167 240.256 23.85C241.623 23.1833 243.156 22.85 244.856 22.85C247.79 22.85 249.956 23.7167 251.356 25.45C252.79 27.1833 253.506 29.85 253.506 33.45V48H244.606V33.8C244.606 32.3 244.34 31.2333 243.806 30.6C243.306 29.9667 242.556 29.65 241.556 29.65C240.223 29.65 239.156 30.0833 238.356 30.95C237.556 31.7833 237.156 32.9167 237.156 34.35V48H228.256ZM258.329 19.15V11.1H267.679V19.15H258.329ZM258.579 48V23.4H267.479V48H258.579ZM285.191 48.55C282.424 48.55 280.008 48.0333 277.941 47C275.908 45.9667 274.324 44.4833 273.191 42.55C272.058 40.6167 271.491 38.3167 271.491 35.65C271.491 32.9833 272.058 30.7 273.191 28.8C274.324 26.8667 275.908 25.4 277.941 24.4C280.008 23.3667 282.424 22.85 285.191 22.85C286.824 22.85 288.441 23.0833 290.041 23.55C291.674 23.9833 293.008 24.6 294.041 25.4L291.691 31.5C290.924 30.9 290.024 30.4333 288.991 30.1C287.991 29.7333 287.041 29.55 286.141 29.55C284.374 29.55 283.008 30.0833 282.041 31.15C281.074 32.2167 280.591 33.7167 280.591 35.65C280.591 37.6167 281.074 39.15 282.041 40.25C283.008 41.3167 284.374 41.85 286.141 41.85C287.041 41.85 287.991 41.6833 288.991 41.35C290.024 40.9833 290.924 40.5 291.691 39.9L294.041 46C293.008 46.8 291.674 47.4333 290.041 47.9C288.408 48.3333 286.791 48.55 285.191 48.55Z" fill="white"/>
<path fill-rule="evenodd" clip-rule="evenodd" d="M34.5964 14.9132L30.5 8L26.0458 15.5171L17.9946 11.1468L18.3098 19.5232H10.016L14.4256 26.9649L7 31.4015L14.2891 35.3582L10.016 42.5695H19.1769L19.5054 51.3011L26.4036 47.1795L30.5 54.0927L34.9542 46.5756L43.0054 50.9459L42.6902 42.5695H50.984L46.5744 35.1278L54 30.6912L46.7109 26.7346L50.984 19.5232H41.8231L41.4946 10.7917L34.5964 14.9132ZM37.328 19.5232L34.5964 14.9132L29.9964 17.6616L26.0458 15.5171L23.672 19.5232H18.3098L18.4982 24.5316L14.4256 26.9649L16.844 31.0464L14.2891 35.3582L19.0018 37.9163L19.1769 42.5695H23.672L26.4036 47.1795L31.0036 44.4311L34.9542 46.5756L37.328 42.5695H42.6902L42.5018 37.5612L46.5744 35.1278L44.156 31.0464L46.7109 26.7346L41.9982 24.1764L41.8231 19.5232H37.328ZM39.1782 22.6456L37.328 19.5232H33.4259L29.9964 17.6616L26.8808 19.5232H23.672L21.9134 22.4911L18.4982 24.5316L18.6299 28.0324L16.844 31.0464L18.8721 34.469L19.0018 37.9163L21.8218 39.4471L23.672 42.5695H27.5741L31.0036 44.4311L34.1193 42.5695H37.328L39.0866 39.6017L42.5018 37.5612L42.3701 34.0603L44.156 31.0464L42.1279 27.6237L41.9982 24.1764L39.1782 22.6456ZM39.1782 22.6456L42.1279 27.6237L42.3701 34.0603L39.0866 39.6017L34.1193 42.5695H27.5741L21.8218 39.4471L18.8721 34.469L18.6299 28.0324L21.9134 22.4911L26.8808 19.5232H33.4259L39.1782 22.6456Z" fill="#D9D9D9"/>
<path d="M25.8931 36V26.13H28.4691V29.938H32.5431V26.13H35.1051V36H32.5431V32.052H28.4691V36H25.8931Z" fill="white"/>
</svg>
